<?xml version="1.0" encoding="utf-8" standalone="no"?>
<!DOCTYPE svg PUBLIC "-//W3C//DTD SVG 1.1//EN"
  "http://www.w3.org/Graphics/SVG/1.1/DTD/svg11.dtd">
<svg xmlns:xlink="http://www.w3.org/1999/xlink" width="864pt" height="360pt" viewBox="0 0 864 360" xmlns="http://www.w3.org/2000/svg" version="1.1">
 <metadata>
  <rdf:RDF xmlns:dc="http://purl.org/dc/elements/1.1/" xmlns:cc="http://creativecommons.org/ns#" xmlns:rdf="http://www.w3.org/1999/02/22-rdf-syntax-ns#">
   <cc:Work>
    <dc:type rdf:resource="http://purl.org/dc/dcmitype/StillImage"/>
    <dc:date>2025-05-20T20:06:53.749120</dc:date>
    <dc:format>image/svg+xml</dc:format>
    <dc:creator>
     <cc:Agent>
      <dc:title>Matplotlib v3.10.3, https://matplotlib.org/</dc:title>
     </cc:Agent>
    </dc:creator>
   </cc:Work>
  </rdf:RDF>
 </metadata>
 <defs>
  <style type="text/css">*{stroke-linejoin: round; stroke-linecap: butt}</style>
 </defs>
 <g id="figure_1">
  <g id="patch_1">
   <path d="M 0 360 
L 864 360 
L 864 0 
L 0 0 
L 0 360 
z
" style="fill: none; opacity: 0"/>
  </g>
  <g id="axes_1">
   <g id="patch_2">
    <path d="M 108 320.4 
L 777.6 320.4 
L 777.6 43.2 
L 108 43.2 
L 108 320.4 
z
" style="fill: none; opacity: 0"/>
   </g>
   <g id="matplotlib.axis_1">
    <g id="xtick_1">
     <g id="line2d_1">
      <path d="M 128.407189 320.4 
L 128.407189 43.2 
" clip-path="url(#p7d796aba92)" style="fill: none; stroke-dasharray: 5.12,1.28,0.8,1.28; stroke-dashoffset: 0; stroke: #b0b0b0; stroke-width: 0.8"/>
     </g>
     <g id="line2d_2">
      <defs>
       <path id="m558141b366" d="M 0 0 
L 0 3.5 
" style="stroke: #a9a9a9; stroke-width: 0.8"/>
      </defs>
      <g>
       <use xlink:href="#m558141b366" x="128.407189" y="320.4" style="fill: #a9a9a9; stroke: #a9a9a9; stroke-width: 0.8"/>
      </g>
     </g>
     <g id="text_1">
      <!-- 2021-07 -->
      <g style="fill: #a9a9a9" transform="translate(107.515783 334.998438) scale(0.1 -0.1)">
       <defs>
        <path id="DejaVuSans-32" d="M 1228 531 
L 3431 531 
L 3431 0 
L 469 0 
L 469 531 
Q 828 903 1448 1529 
Q 2069 2156 2228 2338 
Q 2531 2678 2651 2914 
Q 2772 3150 2772 3378 
Q 2772 3750 2511 3984 
Q 2250 4219 1831 4219 
Q 1534 4219 1204 4116 
Q 875 4013 500 3803 
L 500 4441 
Q 881 4594 1212 4672 
Q 1544 4750 1819 4750 
Q 2544 4750 2975 4387 
Q 3406 4025 3406 3419 
Q 3406 3131 3298 2873 
Q 3191 2616 2906 2266 
Q 2828 2175 2409 1742 
Q 1991 1309 1228 531 
z
" transform="scale(0.015625)"/>
        <path id="DejaVuSans-30" d="M 2034 4250 
Q 1547 4250 1301 3770 
Q 1056 3291 1056 2328 
Q 1056 1369 1301 889 
Q 1547 409 2034 409 
Q 2525 409 2770 889 
Q 3016 1369 3016 2328 
Q 3016 3291 2770 3770 
Q 2525 4250 2034 4250 
z
M 2034 4750 
Q 2819 4750 3233 4129 
Q 3647 3509 3647 2328 
Q 3647 1150 3233 529 
Q 2819 -91 2034 -91 
Q 1250 -91 836 529 
Q 422 1150 422 2328 
Q 422 3509 836 4129 
Q 1250 4750 2034 4750 
z
" transform="scale(0.015625)"/>
        <path id="DejaVuSans-31" d="M 794 531 
L 1825 531 
L 1825 4091 
L 703 3866 
L 703 4441 
L 1819 4666 
L 2450 4666 
L 2450 531 
L 3481 531 
L 3481 0 
L 794 0 
L 794 531 
z
" transform="scale(0.015625)"/>
        <path id="DejaVuSans-2d" d="M 313 2009 
L 1997 2009 
L 1997 1497 
L 313 1497 
L 313 2009 
z
" transform="scale(0.015625)"/>
        <path id="DejaVuSans-37" d="M 525 4666 
L 3525 4666 
L 3525 4397 
L 1831 0 
L 1172 0 
L 2766 4134 
L 525 4134 
L 525 4666 
z
" transform="scale(0.015625)"/>
       </defs>
       <use xlink:href="#DejaVuSans-32"/>
       <use xlink:href="#DejaVuSans-30" transform="translate(63.623047 0)"/>
       <use xlink:href="#DejaVuSans-32" transform="translate(127.246094 0)"/>
       <use xlink:href="#DejaVuSans-31" transform="translate(190.869141 0)"/>
       <use xlink:href="#DejaVuSans-2d" transform="translate(254.492188 0)"/>
       <use xlink:href="#DejaVuSans-30" transform="translate(290.576172 0)"/>
       <use xlink:href="#DejaVuSans-37" transform="translate(354.199219 0)"/>
      </g>
     </g>
    </g>
    <g id="xtick_2">
     <g id="line2d_3">
      <path d="M 208.640583 320.4 
L 208.640583 43.2 
" clip-path="url(#p7d796aba92)" style="fill: none; stroke-dasharray: 5.12,1.28,0.8,1.28; stroke-dashoffset: 0; stroke: #b0b0b0; stroke-width: 0.8"/>
     </g>
     <g id="line2d_4">
      <g>
       <use xlink:href="#m558141b366" x="208.640583" y="320.4" style="fill: #a9a9a9; stroke: #a9a9a9; stroke-width: 0.8"/>
      </g>
     </g>
     <g id="text_2">
      <!-- 2022-01 -->
      <g style="fill: #a9a9a9" transform="translate(187.749177 334.998438) scale(0.1 -0.1)">
       <use xlink:href="#DejaVuSans-32"/>
       <use xlink:href="#DejaVuSans-30" transform="translate(63.623047 0)"/>
       <use xlink:href="#DejaVuSans-32" transform="translate(127.246094 0)"/>
       <use xlink:href="#DejaVuSans-32" transform="translate(190.869141 0)"/>
       <use xlink:href="#DejaVuSans-2d" transform="translate(254.492188 0)"/>
       <use xlink:href="#DejaVuSans-30" transform="translate(290.576172 0)"/>
       <use xlink:href="#DejaVuSans-31" transform="translate(354.199219 0)"/>
      </g>
     </g>
    </g>
    <g id="xtick_3">
     <g id="line2d_5">
      <path d="M 287.565824 320.4 
L 287.565824 43.2 
" clip-path="url(#p7d796aba92)" style="fill: none; stroke-dasharray: 5.12,1.28,0.8,1.28; stroke-dashoffset: 0; stroke: #b0b0b0; stroke-width: 0.8"/>
     </g>
     <g id="line2d_6">
      <g>
       <use xlink:href="#m558141b366" x="287.565824" y="320.4" style="fill: #a9a9a9; stroke: #a9a9a9; stroke-width: 0.8"/>
      </g>
     </g>
     <g id="text_3">
      <!-- 2022-07 -->
      <g style="fill: #a9a9a9" transform="translate(266.674418 334.998438) scale(0.1 -0.1)">
       <use xlink:href="#DejaVuSans-32"/>
       <use xlink:href="#DejaVuSans-30" transform="translate(63.623047 0)"/>
       <use xlink:href="#DejaVuSans-32" transform="translate(127.246094 0)"/>
       <use xlink:href="#DejaVuSans-32" transform="translate(190.869141 0)"/>
       <use xlink:href="#DejaVuSans-2d" transform="translate(254.492188 0)"/>
       <use xlink:href="#DejaVuSans-30" transform="translate(290.576172 0)"/>
       <use xlink:href="#DejaVuSans-37" transform="translate(354.199219 0)"/>
      </g>
     </g>
    </g>
    <g id="xtick_4">
     <g id="line2d_7">
      <path d="M 367.799219 320.4 
L 367.799219 43.2 
" clip-path="url(#p7d796aba92)" style="fill: none; stroke-dasharray: 5.12,1.28,0.8,1.28; stroke-dashoffset: 0; stroke: #b0b0b0; stroke-width: 0.8"/>
     </g>
     <g id="line2d_8">
      <g>
       <use xlink:href="#m558141b366" x="367.799219" y="320.4" style="fill: #a9a9a9; stroke: #a9a9a9; stroke-width: 0.8"/>
      </g>
     </g>
     <g id="text_4">
      <!-- 2023-01 -->
      <g style="fill: #a9a9a9" transform="translate(346.907812 334.998438) scale(0.1 -0.1)">
       <defs>
        <path id="DejaVuSans-33" d="M 2597 2516 
Q 3050 2419 3304 2112 
Q 3559 1806 3559 1356 
Q 3559 666 3084 287 
Q 2609 -91 1734 -91 
Q 1441 -91 1130 -33 
Q 819 25 488 141 
L 488 750 
Q 750 597 1062 519 
Q 1375 441 1716 441 
Q 2309 441 2620 675 
Q 2931 909 2931 1356 
Q 2931 1769 2642 2001 
Q 2353 2234 1838 2234 
L 1294 2234 
L 1294 2753 
L 1863 2753 
Q 2328 2753 2575 2939 
Q 2822 3125 2822 3475 
Q 2822 3834 2567 4026 
Q 2313 4219 1838 4219 
Q 1578 4219 1281 4162 
Q 984 4106 628 3988 
L 628 4550 
Q 988 4650 1302 4700 
Q 1616 4750 1894 4750 
Q 2613 4750 3031 4423 
Q 3450 4097 3450 3541 
Q 3450 3153 3228 2886 
Q 3006 2619 2597 2516 
z
" transform="scale(0.015625)"/>
       </defs>
       <use xlink:href="#DejaVuSans-32"/>
       <use xlink:href="#DejaVuSans-30" transform="translate(63.623047 0)"/>
       <use xlink:href="#DejaVuSans-32" transform="translate(127.246094 0)"/>
       <use xlink:href="#DejaVuSans-33" transform="translate(190.869141 0)"/>
       <use xlink:href="#DejaVuSans-2d" transform="translate(254.492188 0)"/>
       <use xlink:href="#DejaVuSans-30" transform="translate(290.576172 0)"/>
       <use xlink:href="#DejaVuSans-31" transform="translate(354.199219 0)"/>
      </g>
     </g>
    </g>
    <g id="xtick_5">
     <g id="line2d_9">
      <path d="M 446.724459 320.4 
L 446.724459 43.2 
" clip-path="url(#p7d796aba92)" style="fill: none; stroke-dasharray: 5.12,1.28,0.8,1.28; stroke-dashoffset: 0; stroke: #b0b0b0; stroke-width: 0.8"/>
     </g>
     <g id="line2d_10">
      <g>
       <use xlink:href="#m558141b366" x="446.724459" y="320.4" style="fill: #a9a9a9; stroke: #a9a9a9; stroke-width: 0.8"/>
      </g>
     </g>
     <g id="text_5">
      <!-- 2023-07 -->
      <g style="fill: #a9a9a9" transform="translate(425.833053 334.998438) scale(0.1 -0.1)">
       <use xlink:href="#DejaVuSans-32"/>
       <use xlink:href="#DejaVuSans-30" transform="translate(63.623047 0)"/>
       <use xlink:href="#DejaVuSans-32" transform="translate(127.246094 0)"/>
       <use xlink:href="#DejaVuSans-33" transform="translate(190.869141 0)"/>
       <use xlink:href="#DejaVuSans-2d" transform="translate(254.492188 0)"/>
       <use xlink:href="#DejaVuSans-30" transform="translate(290.576172 0)"/>
       <use xlink:href="#DejaVuSans-37" transform="translate(354.199219 0)"/>
      </g>
     </g>
    </g>
    <g id="xtick_6">
     <g id="line2d_11">
      <path d="M 526.957854 320.4 
L 526.957854 43.2 
" clip-path="url(#p7d796aba92)" style="fill: none; stroke-dasharray: 5.12,1.28,0.8,1.28; stroke-dashoffset: 0; stroke: #b0b0b0; stroke-width: 0.8"/>
     </g>
     <g id="line2d_12">
      <g>
       <use xlink:href="#m558141b366" x="526.957854" y="320.4" style="fill: #a9a9a9; stroke: #a9a9a9; stroke-width: 0.8"/>
      </g>
     </g>
     <g id="text_6">
      <!-- 2024-01 -->
      <g style="fill: #a9a9a9" transform="translate(506.066447 334.998438) scale(0.1 -0.1)">
       <defs>
        <path id="DejaVuSans-34" d="M 2419 4116 
L 825 1625 
L 2419 1625 
L 2419 4116 
z
M 2253 4666 
L 3047 4666 
L 3047 1625 
L 3713 1625 
L 3713 1100 
L 3047 1100 
L 3047 0 
L 2419 0 
L 2419 1100 
L 313 1100 
L 313 1709 
L 2253 4666 
z
" transform="scale(0.015625)"/>
       </defs>
       <use xlink:href="#DejaVuSans-32"/>
       <use xlink:href="#DejaVuSans-30" transform="translate(63.623047 0)"/>
       <use xlink:href="#DejaVuSans-32" transform="translate(127.246094 0)"/>
       <use xlink:href="#DejaVuSans-34" transform="translate(190.869141 0)"/>
       <use xlink:href="#DejaVuSans-2d" transform="translate(254.492188 0)"/>
       <use xlink:href="#DejaVuSans-30" transform="translate(290.576172 0)"/>
       <use xlink:href="#DejaVuSans-31" transform="translate(354.199219 0)"/>
      </g>
     </g>
    </g>
    <g id="xtick_7">
     <g id="line2d_13">
      <path d="M 606.319146 320.4 
L 606.319146 43.2 
" clip-path="url(#p7d796aba92)" style="fill: none; stroke-dasharray: 5.12,1.28,0.8,1.28; stroke-dashoffset: 0; stroke: #b0b0b0; stroke-width: 0.8"/>
     </g>
     <g id="line2d_14">
      <g>
       <use xlink:href="#m558141b366" x="606.319146" y="320.4" style="fill: #a9a9a9; stroke: #a9a9a9; stroke-width: 0.8"/>
      </g>
     </g>
     <g id="text_7">
      <!-- 2024-07 -->
      <g style="fill: #a9a9a9" transform="translate(585.427739 334.998438) scale(0.1 -0.1)">
       <use xlink:href="#DejaVuSans-32"/>
       <use xlink:href="#DejaVuSans-30" transform="translate(63.623047 0)"/>
       <use xlink:href="#DejaVuSans-32" transform="translate(127.246094 0)"/>
       <use xlink:href="#DejaVuSans-34" transform="translate(190.869141 0)"/>
       <use xlink:href="#DejaVuSans-2d" transform="translate(254.492188 0)"/>
       <use xlink:href="#DejaVuSans-30" transform="translate(290.576172 0)"/>
       <use xlink:href="#DejaVuSans-37" transform="translate(354.199219 0)"/>
      </g>
     </g>
    </g>
    <g id="xtick_8">
     <g id="line2d_15">
      <path d="M 686.55254 320.4 
L 686.55254 43.2 
" clip-path="url(#p7d796aba92)" style="fill: none; stroke-dasharray: 5.12,1.28,0.8,1.28; stroke-dashoffset: 0; stroke: #b0b0b0; stroke-width: 0.8"/>
     </g>
     <g id="line2d_16">
      <g>
       <use xlink:href="#m558141b366" x="686.55254" y="320.4" style="fill: #a9a9a9; stroke: #a9a9a9; stroke-width: 0.8"/>
      </g>
     </g>
     <g id="text_8">
      <!-- 2025-01 -->
      <g style="fill: #a9a9a9" transform="translate(665.661133 334.998438) scale(0.1 -0.1)">
       <defs>
        <path id="DejaVuSans-35" d="M 691 4666 
L 3169 4666 
L 3169 4134 
L 1269 4134 
L 1269 2991 
Q 1406 3038 1543 3061 
Q 1681 3084 1819 3084 
Q 2600 3084 3056 2656 
Q 3513 2228 3513 1497 
Q 3513 744 3044 326 
Q 2575 -91 1722 -91 
Q 1428 -91 1123 -41 
Q 819 9 494 109 
L 494 744 
Q 775 591 1075 516 
Q 1375 441 1709 441 
Q 2250 441 2565 725 
Q 2881 1009 2881 1497 
Q 2881 1984 2565 2268 
Q 2250 2553 1709 2553 
Q 1456 2553 1204 2497 
Q 953 2441 691 2322 
L 691 4666 
z
" transform="scale(0.015625)"/>
       </defs>
       <use xlink:href="#DejaVuSans-32"/>
       <use xlink:href="#DejaVuSans-30" transform="translate(63.623047 0)"/>
       <use xlink:href="#DejaVuSans-32" transform="translate(127.246094 0)"/>
       <use xlink:href="#DejaVuSans-35" transform="translate(190.869141 0)"/>
       <use xlink:href="#DejaVuSans-2d" transform="translate(254.492188 0)"/>
       <use xlink:href="#DejaVuSans-30" transform="translate(290.576172 0)"/>
       <use xlink:href="#DejaVuSans-31" transform="translate(354.199219 0)"/>
      </g>
     </g>
    </g>
    <g id="xtick_9">
     <g id="line2d_17">
      <path d="M 765.477781 320.4 
L 765.477781 43.2 
" clip-path="url(#p7d796aba92)" style="fill: none; stroke-dasharray: 5.12,1.28,0.8,1.28; stroke-dashoffset: 0; stroke: #b0b0b0; stroke-width: 0.8"/>
     </g>
     <g id="line2d_18">
      <g>
       <use xlink:href="#m558141b366" x="765.477781" y="320.4" style="fill: #a9a9a9; stroke: #a9a9a9; stroke-width: 0.8"/>
      </g>
     </g>
     <g id="text_9">
      <!-- 2025-07 -->
      <g style="fill: #a9a9a9" transform="translate(744.586374 334.998438) scale(0.1 -0.1)">
       <use xlink:href="#DejaVuSans-32"/>
       <use xlink:href="#DejaVuSans-30" transform="translate(63.623047 0)"/>
       <use xlink:href="#DejaVuSans-32" transform="translate(127.246094 0)"/>
       <use xlink:href="#DejaVuSans-35" transform="translate(190.869141 0)"/>
       <use xlink:href="#DejaVuSans-2d" transform="translate(254.492188 0)"/>
       <use xlink:href="#DejaVuSans-30" transform="translate(290.576172 0)"/>
       <use xlink:href="#DejaVuSans-37" transform="translate(354.199219 0)"/>
      </g>
     </g>
    </g>
   </g>
   <g id="matplotlib.axis_2">
    <g id="ytick_1">
     <g id="line2d_19">
      <path d="M 108 307.832937 
L 777.6 307.832937 
" clip-path="url(#p7d796aba92)" style="fill: none; stroke-dasharray: 5.12,1.28,0.8,1.28; stroke-dashoffset: 0; stroke: #b0b0b0; stroke-width: 0.8"/>
     </g>
     <g id="line2d_20">
      <defs>
       <path id="m9e312b6d89" d="M 0 0 
L -3.5 0 
" style="stroke: #a9a9a9; stroke-width: 0.8"/>
      </defs>
      <g>
       <use xlink:href="#m9e312b6d89" x="108" y="307.832937" style="fill: #a9a9a9; stroke: #a9a9a9; stroke-width: 0.8"/>
      </g>
     </g>
     <g id="text_10">
      <!-- 0 -->
      <g style="fill: #a9a9a9" transform="translate(94.6375 311.632156) scale(0.1 -0.1)">
       <use xlink:href="#DejaVuSans-30"/>
      </g>
     </g>
    </g>
    <g id="ytick_2">
     <g id="line2d_21">
      <path d="M 108 274.896066 
L 777.6 274.896066 
" clip-path="url(#p7d796aba92)" style="fill: none; stroke-dasharray: 5.12,1.28,0.8,1.28; stroke-dashoffset: 0; stroke: #b0b0b0; stroke-width: 0.8"/>
     </g>
     <g id="line2d_22">
      <g>
       <use xlink:href="#m9e312b6d89" x="108" y="274.896066" style="fill: #a9a9a9; stroke: #a9a9a9; stroke-width: 0.8"/>
      </g>
     </g>
     <g id="text_11">
      <!-- 1000 -->
      <g style="fill: #a9a9a9" transform="translate(75.55 278.695285) scale(0.1 -0.1)">
       <use xlink:href="#DejaVuSans-31"/>
       <use xlink:href="#DejaVuSans-30" transform="translate(63.623047 0)"/>
       <use xlink:href="#DejaVuSans-30" transform="translate(127.246094 0)"/>
       <use xlink:href="#DejaVuSans-30" transform="translate(190.869141 0)"/>
      </g>
     </g>
    </g>
    <g id="ytick_3">
     <g id="line2d_23">
      <path d="M 108 241.959195 
L 777.6 241.959195 
" clip-path="url(#p7d796aba92)" style="fill: none; stroke-dasharray: 5.12,1.28,0.8,1.28; stroke-dashoffset: 0; stroke: #b0b0b0; stroke-width: 0.8"/>
     </g>
     <g id="line2d_24">
      <g>
       <use xlink:href="#m9e312b6d89" x="108" y="241.959195" style="fill: #a9a9a9; stroke: #a9a9a9; stroke-width: 0.8"/>
      </g>
     </g>
     <g id="text_12">
      <!-- 2000 -->
      <g style="fill: #a9a9a9" transform="translate(75.55 245.758414) scale(0.1 -0.1)">
       <use xlink:href="#DejaVuSans-32"/>
       <use xlink:href="#DejaVuSans-30" transform="translate(63.623047 0)"/>
       <use xlink:href="#DejaVuSans-30" transform="translate(127.246094 0)"/>
       <use xlink:href="#DejaVuSans-30" transform="translate(190.869141 0)"/>
      </g>
     </g>
    </g>
    <g id="ytick_4">
     <g id="line2d_25">
      <path d="M 108 209.022324 
L 777.6 209.022324 
" clip-path="url(#p7d796aba92)" style="fill: none; stroke-dasharray: 5.12,1.28,0.8,1.28; stroke-dashoffset: 0; stroke: #b0b0b0; stroke-width: 0.8"/>
     </g>
     <g id="line2d_26">
      <g>
       <use xlink:href="#m9e312b6d89" x="108" y="209.022324" style="fill: #a9a9a9; stroke: #a9a9a9; stroke-width: 0.8"/>
      </g>
     </g>
     <g id="text_13">
      <!-- 3000 -->
      <g style="fill: #a9a9a9" transform="translate(75.55 212.821543) scale(0.1 -0.1)">
       <use xlink:href="#DejaVuSans-33"/>
       <use xlink:href="#DejaVuSans-30" transform="translate(63.623047 0)"/>
       <use xlink:href="#DejaVuSans-30" transform="translate(127.246094 0)"/>
       <use xlink:href="#DejaVuSans-30" transform="translate(190.869141 0)"/>
      </g>
     </g>
    </g>
    <g id="ytick_5">
     <g id="line2d_27">
      <path d="M 108 176.085453 
L 777.6 176.085453 
" clip-path="url(#p7d796aba92)" style="fill: none; stroke-dasharray: 5.12,1.28,0.8,1.28; stroke-dashoffset: 0; stroke: #b0b0b0; stroke-width: 0.8"/>
     </g>
     <g id="line2d_28">
      <g>
       <use xlink:href="#m9e312b6d89" x="108" y="176.085453" style="fill: #a9a9a9; stroke: #a9a9a9; stroke-width: 0.8"/>
      </g>
     </g>
     <g id="text_14">
      <!-- 4000 -->
      <g style="fill: #a9a9a9" transform="translate(75.55 179.884672) scale(0.1 -0.1)">
       <use xlink:href="#DejaVuSans-34"/>
       <use xlink:href="#DejaVuSans-30" transform="translate(63.623047 0)"/>
       <use xlink:href="#DejaVuSans-30" transform="translate(127.246094 0)"/>
       <use xlink:href="#DejaVuSans-30" transform="translate(190.869141 0)"/>
      </g>
     </g>
    </g>
    <g id="ytick_6">
     <g id="line2d_29">
      <path d="M 108 143.148582 
L 777.6 143.148582 
" clip-path="url(#p7d796aba92)" style="fill: none; stroke-dasharray: 5.12,1.28,0.8,1.28; stroke-dashoffset: 0; stroke: #b0b0b0; stroke-width: 0.8"/>
     </g>
     <g id="line2d_30">
      <g>
       <use xlink:href="#m9e312b6d89" x="108" y="143.148582" style="fill: #a9a9a9; stroke: #a9a9a9; stroke-width: 0.8"/>
      </g>
     </g>
     <g id="text_15">
      <!-- 5000 -->
      <g style="fill: #a9a9a9" transform="translate(75.55 146.947801) scale(0.1 -0.1)">
       <use xlink:href="#DejaVuSans-35"/>
       <use xlink:href="#DejaVuSans-30" transform="translate(63.623047 0)"/>
       <use xlink:href="#DejaVuSans-30" transform="translate(127.246094 0)"/>
       <use xlink:href="#DejaVuSans-30" transform="translate(190.869141 0)"/>
      </g>
     </g>
    </g>
    <g id="ytick_7">
     <g id="line2d_31">
      <path d="M 108 110.211711 
L 777.6 110.211711 
" clip-path="url(#p7d796aba92)" style="fill: none; stroke-dasharray: 5.12,1.28,0.8,1.28; stroke-dashoffset: 0; stroke: #b0b0b0; stroke-width: 0.8"/>
     </g>
     <g id="line2d_32">
      <g>
       <use xlink:href="#m9e312b6d89" x="108" y="110.211711" style="fill: #a9a9a9; stroke: #a9a9a9; stroke-width: 0.8"/>
      </g>
     </g>
     <g id="text_16">
      <!-- 6000 -->
      <g style="fill: #a9a9a9" transform="translate(75.55 114.01093) scale(0.1 -0.1)">
       <defs>
        <path id="DejaVuSans-36" d="M 2113 2584 
Q 1688 2584 1439 2293 
Q 1191 2003 1191 1497 
Q 1191 994 1439 701 
Q 1688 409 2113 409 
Q 2538 409 2786 701 
Q 3034 994 3034 1497 
Q 3034 2003 2786 2293 
Q 2538 2584 2113 2584 
z
M 3366 4563 
L 3366 3988 
Q 3128 4100 2886 4159 
Q 2644 4219 2406 4219 
Q 1781 4219 1451 3797 
Q 1122 3375 1075 2522 
Q 1259 2794 1537 2939 
Q 1816 3084 2150 3084 
Q 2853 3084 3261 2657 
Q 3669 2231 3669 1497 
Q 3669 778 3244 343 
Q 2819 -91 2113 -91 
Q 1303 -91 875 529 
Q 447 1150 447 2328 
Q 447 3434 972 4092 
Q 1497 4750 2381 4750 
Q 2619 4750 2861 4703 
Q 3103 4656 3366 4563 
z
" transform="scale(0.015625)"/>
       </defs>
       <use xlink:href="#DejaVuSans-36"/>
       <use xlink:href="#DejaVuSans-30" transform="translate(63.623047 0)"/>
       <use xlink:href="#DejaVuSans-30" transform="translate(127.246094 0)"/>
       <use xlink:href="#DejaVuSans-30" transform="translate(190.869141 0)"/>
      </g>
     </g>
    </g>
    <g id="ytick_8">
     <g id="line2d_33">
      <path d="M 108 77.27484 
L 777.6 77.27484 
" clip-path="url(#p7d796aba92)" style="fill: none; stroke-dasharray: 5.12,1.28,0.8,1.28; stroke-dashoffset: 0; stroke: #b0b0b0; stroke-width: 0.8"/>
     </g>
     <g id="line2d_34">
      <g>
       <use xlink:href="#m9e312b6d89" x="108" y="77.27484" style="fill: #a9a9a9; stroke: #a9a9a9; stroke-width: 0.8"/>
      </g>
     </g>
     <g id="text_17">
      <!-- 7000 -->
      <g style="fill: #a9a9a9" transform="translate(75.55 81.074059) scale(0.1 -0.1)">
       <use xlink:href="#DejaVuSans-37"/>
       <use xlink:href="#DejaVuSans-30" transform="translate(63.623047 0)"/>
       <use xlink:href="#DejaVuSans-30" transform="translate(127.246094 0)"/>
       <use xlink:href="#DejaVuSans-30" transform="translate(190.869141 0)"/>
      </g>
     </g>
    </g>
    <g id="ytick_9">
     <g id="line2d_35">
      <path d="M 108 44.337969 
L 777.6 44.337969 
" clip-path="url(#p7d796aba92)" style="fill: none; stroke-dasharray: 5.12,1.28,0.8,1.28; stroke-dashoffset: 0; stroke: #b0b0b0; stroke-width: 0.8"/>
     </g>
     <g id="line2d_36">
      <g>
       <use xlink:href="#m9e312b6d89" x="108" y="44.337969" style="fill: #a9a9a9; stroke: #a9a9a9; stroke-width: 0.8"/>
      </g>
     </g>
     <g id="text_18">
      <!-- 8000 -->
      <g style="fill: #a9a9a9" transform="translate(75.55 48.137188) scale(0.1 -0.1)">
       <defs>
        <path id="DejaVuSans-38" d="M 2034 2216 
Q 1584 2216 1326 1975 
Q 1069 1734 1069 1313 
Q 1069 891 1326 650 
Q 1584 409 2034 409 
Q 2484 409 2743 651 
Q 3003 894 3003 1313 
Q 3003 1734 2745 1975 
Q 2488 2216 2034 2216 
z
M 1403 2484 
Q 997 2584 770 2862 
Q 544 3141 544 3541 
Q 544 4100 942 4425 
Q 1341 4750 2034 4750 
Q 2731 4750 3128 4425 
Q 3525 4100 3525 3541 
Q 3525 3141 3298 2862 
Q 3072 2584 2669 2484 
Q 3125 2378 3379 2068 
Q 3634 1759 3634 1313 
Q 3634 634 3220 271 
Q 2806 -91 2034 -91 
Q 1263 -91 848 271 
Q 434 634 434 1313 
Q 434 1759 690 2068 
Q 947 2378 1403 2484 
z
M 1172 3481 
Q 1172 3119 1398 2916 
Q 1625 2713 2034 2713 
Q 2441 2713 2670 2916 
Q 2900 3119 2900 3481 
Q 2900 3844 2670 4047 
Q 2441 4250 2034 4250 
Q 1625 4250 1398 4047 
Q 1172 3844 1172 3481 
z
" transform="scale(0.015625)"/>
       </defs>
       <use xlink:href="#DejaVuSans-38"/>
       <use xlink:href="#DejaVuSans-30" transform="translate(63.623047 0)"/>
       <use xlink:href="#DejaVuSans-30" transform="translate(127.246094 0)"/>
       <use xlink:href="#DejaVuSans-30" transform="translate(190.869141 0)"/>
      </g>
     </g>
    </g>
   </g>
   <g id="line2d_37">
    <path d="M 138.436364 307.734126 
L 141.05267 307.503568 
L 141.488721 307.305947 
L 143.232925 307.075389 
L 144.977129 306.713083 
L 145.849232 306.581336 
L 148.029487 306.383715 
L 148.901589 306.021409 
L 149.33764 305.428545 
L 149.773691 305.132113 
L 150.209742 304.144007 
L 150.645793 304.078134 
L 151.081844 303.715828 
L 151.953946 303.254712 
L 153.698151 301.805489 
L 155.442355 300.916194 
L 156.750508 300.290393 
L 157.186559 299.565782 
L 158.058661 298.907045 
L 158.494712 298.709424 
L 162.855223 298.050686 
L 163.291274 297.853065 
L 166.343631 297.58957 
L 168.087835 297.161391 
L 171.576244 296.667338 
L 172.012295 296.43678 
L 172.448346 296.370906 
L 173.320448 296.074474 
L 176.372805 295.547484 
L 177.244908 295.283989 
L 181.169367 294.625252 
L 182.041469 294.42763 
L 182.913571 294.394694 
L 184.657775 293.966514 
L 185.093827 293.340714 
L 186.40198 292.813724 
L 187.710133 292.451418 
L 188.146184 292.22086 
L 189.018286 292.056176 
L 190.76249 291.529186 
L 191.634592 291.463312 
L 192.506694 291.232754 
L 194.250899 290.771638 
L 194.68695 290.738701 
L 195.559052 290.310522 
L 195.995103 290.244648 
L 196.431154 290.01409 
L 201.227716 289.190668 
L 202.97192 288.663678 
L 203.407971 288.367246 
L 205.588226 287.642635 
L 206.460328 287.016834 
L 207.768481 286.753339 
L 217.361605 283.887832 
L 217.797656 283.854895 
L 219.105809 283.459652 
L 219.54186 283.459652 
L 219.977911 283.262031 
L 220.850013 283.16322 
L 221.286064 282.998536 
L 223.030268 282.932662 
L 223.90237 282.767978 
L 224.774473 282.306862 
L 226.082626 281.812809 
L 226.954728 281.351693 
L 227.82683 280.890576 
L 228.698932 280.594145 
L 229.134983 280.462397 
L 230.007085 279.90247 
L 230.443136 279.408417 
L 231.315238 278.025069 
L 231.751289 277.893321 
L 232.18734 277.893321 
L 233.495494 277.102836 
L 233.931545 276.872278 
L 234.367596 276.773468 
L 234.803647 276.345288 
L 235.675749 275.982983 
L 236.547851 275.554803 
L 238.728106 272.689296 
L 241.344413 271.240073 
L 242.216515 270.515462 
L 242.652566 270.251967 
L 243.088617 269.626167 
L 243.524668 268.605124 
L 243.960719 267.913449 
L 244.39677 267.551144 
L 244.832821 267.353522 
L 248.321229 264.059835 
L 249.193332 263.236414 
L 251.809638 261.556633 
L 252.245689 261.391949 
L 253.989893 260.337969 
L 254.425944 260.140348 
L 256.6062 258.098262 
L 257.478302 257.735956 
L 258.350404 257.110156 
L 258.786455 256.846661 
L 259.222506 256.780787 
L 260.530659 256.023239 
L 260.96671 255.529186 
L 263.146965 254.310522 
L 263.583016 254.145837 
L 264.89117 253.223605 
L 271.431935 250.85215 
L 272.304038 250.028728 
L 273.612191 249.369991 
L 274.484293 248.810064 
L 275.356395 248.546569 
L 275.792446 248.250137 
L 276.228497 248.11839 
L 277.53665 247.229094 
L 279.716905 246.735041 
L 281.025059 245.944556 
L 282.333212 245.648124 
L 282.769263 245.549314 
L 284.077416 244.528271 
L 285.82162 244.034218 
L 286.257671 243.671912 
L 288.873978 242.74968 
L 289.74608 242.584995 
L 290.618182 242.22269 
L 293.670539 241.069899 
L 294.542641 240.938152 
L 295.850794 240.477036 
L 298.03105 239.390119 
L 299.775254 238.402013 
L 303.263662 236.919854 
L 303.699713 236.85398 
L 304.571816 236.294053 
L 305.443918 236.063495 
L 306.752071 235.536505 
L 308.496275 235.305947 
L 309.368377 234.844831 
L 309.804428 234.449588 
L 310.240479 233.659103 
L 311.984684 233.16505 
L 313.292837 232.473376 
L 314.164939 232.176944 
L 315.037041 231.715828 
L 317.653347 230.628911 
L 318.525449 230.43129 
L 319.397551 229.970174 
L 319.833603 229.772553 
L 320.269654 229.706679 
L 322.449909 228.619762 
L 323.322011 228.059835 
L 324.630164 227.79634 
L 326.810419 227.236414 
L 327.24647 226.874108 
L 328.118573 226.577676 
L 330.298828 225.688381 
L 330.734879 225.359012 
L 331.17093 225.194328 
L 332.043032 224.700274 
L 333.787236 224.140348 
L 334.659338 223.580421 
L 335.095389 223.119305 
L 335.53144 222.85581 
L 335.967492 222.756999 
L 336.839594 222.032388 
L 337.275645 221.966514 
L 337.711696 221.241903 
L 338.147747 221.044282 
L 338.583798 220.681976 
L 339.019849 220.616102 
L 339.891951 220.056176 
L 340.764053 219.759744 
L 341.200104 219.430375 
L 341.636155 219.265691 
L 343.380359 218.079963 
L 344.688513 217.388289 
L 345.560615 217.157731 
L 346.432717 216.663678 
L 346.868768 215.90613 
L 347.74087 215.247392 
L 348.176921 215.148582 
L 350.793227 213.864044 
L 351.66533 213.501738 
L 352.537432 212.875938 
L 353.409534 211.986642 
L 357.333993 208.890576 
L 357.770044 208.528271 
L 358.642146 208.231839 
L 359.514249 207.638975 
L 360.822402 206.947301 
L 361.258453 206.881427 
L 362.566606 206.156816 
L 363.438708 205.596889 
L 367.799219 203.950046 
L 368.23527 203.58774 
L 369.979474 202.896066 
L 370.415525 202.764318 
L 371.287627 202.171455 
L 372.159729 201.809149 
L 373.031831 201.183349 
L 373.903933 199.404758 
L 374.776035 198.350778 
L 376.084189 197.659103 
L 376.956291 197.296798 
L 377.392342 197.230924 
L 377.828393 196.967429 
L 380.008648 196.242818 
L 380.444699 196.045197 
L 381.316801 195.452333 
L 382.624954 194.892406 
L 383.497057 194.398353 
L 384.369159 193.871363 
L 384.80521 193.574931 
L 385.241261 193.080878 
L 386.549414 192.32333 
L 386.985465 192.158646 
L 387.857567 191.631656 
L 389.601771 190.676487 
L 390.037822 190.577676 
L 390.473873 190.215371 
L 393.526231 189.194328 
L 393.962282 188.864959 
L 394.834384 188.601464 
L 395.706486 188.239158 
L 396.142537 187.876853 
L 397.886741 187.251052 
L 398.758843 186.625252 
L 399.630946 186.262946 
L 400.503048 185.571272 
L 401.37515 185.307777 
L 401.811201 184.912534 
L 402.247252 184.846661 
L 403.119354 184.154986 
L 403.991456 183.69387 
L 404.427507 183.496249 
L 404.863558 183.035133 
L 407.915916 181.783532 
L 408.788018 181.388289 
L 410.096171 180.96011 
L 410.968273 180.828362 
L 411.404324 180.630741 
L 411.840375 180.564867 
L 412.712477 180.169625 
L 413.148528 180.136688 
L 414.892732 179.477951 
L 416.200886 178.522781 
L 416.636937 178.358097 
L 417.509039 177.864044 
L 417.94509 177.732296 
L 420.561396 176.250137 
L 420.997447 176.151327 
L 422.3056 175.360842 
L 423.613754 174.899726 
L 424.485856 174.603294 
L 426.23006 174.01043 
L 427.102162 173.713998 
L 428.846366 173.351693 
L 429.282417 173.154071 
L 430.154519 172.923513 
L 430.59057 172.725892 
L 431.026622 172.660018 
L 431.462673 172.42946 
L 432.334775 172.264776 
L 433.642928 171.770723 
L 434.51503 171.671912 
L 435.823183 171.37548 
L 438.003438 170.980238 
L 449.340766 167.554803 
L 449.776817 167.093687 
L 452.393123 166.00677 
L 454.137327 165.413907 
L 454.573378 165.150412 
L 455.881532 164.755169 
L 456.753634 164.524611 
L 457.189685 164.228179 
L 457.625736 164.129369 
L 458.061787 163.734126 
L 459.36994 163.470631 
L 460.242042 163.042452 
L 460.678093 162.515462 
L 462.422297 162.087283 
L 465.474655 161.428545 
L 465.910706 161.428545 
L 466.346757 161.230924 
L 468.090961 160.901555 
L 468.527012 160.703934 
L 470.271216 160.374565 
L 471.143319 160.01226 
L 472.015421 159.847575 
L 474.195676 159.287649 
L 475.93988 158.727722 
L 476.375931 158.628911 
L 476.811982 158.398353 
L 477.684084 158.167795 
L 478.556187 157.805489 
L 479.428289 157.476121 
L 479.86434 157.179689 
L 480.736442 156.916194 
L 483.788799 155.763403 
L 485.533003 155.532845 
L 489.021412 154.248307 
L 489.457463 153.918939 
L 489.893514 153.820128 
L 490.329565 153.58957 
L 490.765616 153.556633 
L 495.562178 151.810979 
L 497.742433 151.218115 
L 498.614535 150.789936 
L 499.922688 150.493504 
L 501.666892 149.044282 
L 503.411097 148.286734 
L 504.283199 147.891491 
L 506.899505 146.870448 
L 507.335556 146.574016 
L 509.515811 145.849405 
L 510.823965 145.091857 
L 511.260016 144.993047 
L 513.00422 144.004941 
L 514.748424 143.214456 
L 515.184475 142.885087 
L 516.056577 142.588655 
L 518.236833 141.468801 
L 519.544986 141.007685 
L 521.28919 140.283074 
L 522.597343 139.789021 
L 523.033394 139.624337 
L 523.905496 139.492589 
L 524.341547 139.196157 
L 526.085751 138.833852 
L 526.957854 138.471546 
L 528.702058 137.648124 
L 534.806773 134.947301 
L 536.114926 134.519122 
L 536.550977 134.22269 
L 537.423079 134.123879 
L 537.85913 133.827447 
L 538.731232 133.662763 
L 539.603334 133.234584 
L 540.039385 133.036962 
L 540.911487 132.806404 
L 541.783589 132.542909 
L 543.091743 132.048856 
L 544.399896 131.620677 
L 545.708049 131.324245 
L 547.452253 130.599634 
L 548.324355 130.105581 
L 550.06856 129.216285 
L 550.940662 129.018664 
L 551.376713 128.755169 
L 551.812764 128.656359 
L 553.120917 127.898811 
L 553.993019 127.536505 
L 563.586142 123.814639 
L 565.330346 122.991217 
L 569.690857 121.2785 
L 570.562959 120.85032 
L 570.99901 120.75151 
L 571.435061 120.520952 
L 573.179265 120.026898 
L 574.92347 118.577676 
L 575.359521 118.445929 
L 575.795572 118.182434 
L 577.103725 117.820128 
L 577.539776 117.490759 
L 577.975827 117.391949 
L 579.28398 116.601464 
L 579.720031 116.305032 
L 581.028184 115.810979 
L 581.464235 115.580421 
L 582.772389 115.283989 
L 584.952644 114.526441 
L 585.824746 114.230009 
L 587.132899 113.571272 
L 588.005001 113.143092 
L 588.877103 112.912534 
L 590.185257 112.286734 
L 594.109716 110.804575 
L 595.417869 109.981153 
L 595.85392 109.882342 
L 596.726022 109.454163 
L 597.598125 109.124794 
L 598.034176 108.729552 
L 598.906278 108.367246 
L 600.214431 107.90613 
L 600.650482 107.543824 
L 601.086533 107.510887 
L 601.958635 107.247392 
L 602.830737 106.950961 
L 603.266788 106.753339 
L 603.702839 106.687466 
L 605.010992 106.193413 
L 606.319146 105.69936 
L 608.06335 104.908875 
L 608.935452 104.678317 
L 609.371503 104.414822 
L 610.243605 104.184263 
L 611.551758 103.426715 
L 611.987809 103.393779 
L 613.295962 102.965599 
L 614.168065 102.899726 
L 614.604116 102.669167 
L 615.476218 102.438609 
L 615.912269 102.208051 
L 618.092524 101.779872 
L 618.964626 101.615188 
L 620.272779 101.121134 
L 621.580933 100.824703 
L 622.889086 100.133028 
L 623.325137 99.737786 
L 624.63329 98.947301 
L 625.069341 98.617932 
L 626.377494 98.189753 
L 627.249596 97.926258 
L 627.685647 97.6957 
L 628.121698 97.596889 
L 628.557749 97.234584 
L 631.174056 96.11473 
L 632.91826 95.653614 
L 633.790362 95.258371 
L 634.226413 95.027813 
L 635.098515 94.764318 
L 635.534566 94.500823 
L 636.406668 94.336139 
L 639.895077 92.821043 
L 640.331128 92.755169 
L 641.639281 91.898811 
L 642.075332 91.832937 
L 643.819536 91.141263 
L 645.563741 90.713083 
L 645.999792 90.64721 
L 646.435843 90.449588 
L 646.871894 90.416651 
L 647.743996 90.12022 
L 648.180047 90.087283 
L 649.4882 89.560293 
L 651.232404 89.06624 
L 652.104506 88.407502 
L 653.848711 87.419396 
L 655.156864 86.95828 
L 658.645272 85.2785 
L 659.081323 85.047941 
L 659.517374 84.652699 
L 661.69763 84.059835 
L 663.005783 83.466972 
L 663.877885 83.236414 
L 664.313936 83.005855 
L 664.749987 82.64355 
L 666.494191 82.182434 
L 666.930242 81.853065 
L 672.598906 79.778042 
L 673.471008 79.613358 
L 675.651263 78.921683 
L 676.523365 78.559378 
L 677.395468 78.230009 
L 678.26757 77.999451 
L 678.703621 77.80183 
L 679.139672 77.80183 
L 680.011774 77.439524 
L 680.883876 76.912534 
L 683.936233 75.891491 
L 685.680438 75.298628 
L 686.988591 75.002196 
L 688.296744 74.574016 
L 688.732795 74.475206 
L 689.168846 74.178774 
L 690.040948 73.981153 
L 691.785152 73.4871 
L 692.221203 73.454163 
L 693.093306 73.05892 
L 696.145663 72.301372 
L 697.017765 71.939067 
L 701.378276 70.950961 
L 702.686429 70.259286 
L 703.994582 69.864044 
L 708.355092 68.250137 
L 708.791144 67.920769 
L 710.099297 67.624337 
L 710.971399 67.360842 
L 711.843501 66.932662 
L 712.279552 66.570357 
L 713.151654 66.306862 
L 713.587705 66.043367 
L 714.459807 65.944556 
L 717.512165 65.088198 
L 718.820318 64.824703 
L 721.436624 63.968344 
L 723.180828 63.144922 
L 727.97739 61.366331 
L 728.849492 61.234584 
L 729.721594 61.069899 
L 730.157645 61.069899 
L 731.901849 60.509973 
L 732.3379 60.444099 
L 733.210003 60.081793 
L 734.082105 59.851235 
L 736.698411 59.126624 
L 737.570513 58.896066 
L 738.006564 58.797255 
L 738.442615 58.53376 
L 739.314717 58.369076 
L 740.186819 58.270265 
L 740.622871 58.039707 
L 741.058922 58.00677 
L 741.931024 57.446844 
L 743.675228 57.051601 
L 744.54733 56.656359 
L 745.419432 56.359927 
L 746.291534 56.129369 
L 746.727585 55.898811 
L 747.163636 55.8 
L 747.163636 55.8 
" clip-path="url(#p7d796aba92)" style="fill: none; stroke: #1f77b4; stroke-width: 1.5; stroke-linecap: square"/>
   </g>
   <g id="line2d_38">
    <path d="M 138.872415 307.8 
L 142.796874 307.701189 
L 146.285283 307.536505 
L 148.029487 307.536505 
L 148.465538 307.404758 
L 150.645793 307.305947 
L 153.2621 307.009515 
L 155.878406 306.910704 
L 156.750508 306.811894 
L 159.802865 306.680146 
L 162.855223 306.581336 
L 165.035478 306.515462 
L 170.704142 306.416651 
L 172.884397 306.350778 
L 176.808856 306.251967 
L 178.553061 306.21903 
L 182.913571 306.12022 
L 184.657775 305.955535 
L 186.40198 305.922598 
L 189.018286 305.823788 
L 190.76249 305.790851 
L 192.942746 305.724977 
L 194.68695 305.560293 
L 198.611409 305.461482 
L 199.483511 305.395608 
L 201.227716 305.296798 
L 203.844022 305.197987 
L 205.588226 305.099177 
L 213.437145 304.605124 
L 216.489502 304.506313 
L 217.797656 304.374565 
L 219.977911 304.275755 
L 224.338421 304.045197 
L 228.698932 303.979323 
L 230.443136 303.781702 
L 232.18734 303.682891 
L 236.983902 303.221775 
L 240.036259 302.859469 
L 241.344413 302.793596 
L 244.832821 302.332479 
L 247.449127 302.266606 
L 248.757281 302.134858 
L 250.065434 302.036048 
L 262.274863 301.080878 
L 263.146965 300.916194 
L 265.763272 300.817383 
L 272.740089 300.389204 
L 275.792446 300.290393 
L 277.53665 300.092772 
L 279.716905 299.993962 
L 282.333212 299.895151 
L 284.513467 299.79634 
L 286.257671 299.763403 
L 288.437927 299.69753 
L 289.310029 299.565782 
L 295.414743 299.466972 
L 296.286846 299.368161 
L 301.519458 299.26935 
L 305.443918 299.071729 
L 308.496275 298.972919 
L 310.240479 298.775297 
L 313.292837 298.676487 
L 314.164939 298.511802 
L 316.345194 298.445929 
L 320.705705 298.380055 
L 322.449909 298.215371 
L 324.194113 298.182434 
L 325.502266 298.083623 
L 327.24647 297.918939 
L 331.606981 297.688381 
L 335.967492 297.58957 
L 339.891951 297.391949 
L 341.200104 297.359012 
L 342.072206 297.227264 
L 344.252462 297.128454 
L 345.124564 297.06258 
L 345.996666 296.996706 
L 346.868768 296.930833 
L 350.793227 296.864959 
L 352.101381 296.766148 
L 363.874759 295.975663 
L 366.055014 295.876853 
L 368.23527 295.810979 
L 374.339984 295.712168 
L 375.212086 295.580421 
L 381.316801 295.48161 
L 385.677312 295.251052 
L 386.549414 295.218115 
L 387.421516 295.119305 
L 389.601771 295.020494 
L 391.782027 294.95462 
L 393.962282 294.85581 
L 396.142537 294.789936 
L 400.066997 294.691125 
L 402.683303 294.592315 
L 408.788018 294.493504 
L 413.584579 294.230009 
L 415.328784 294.164135 
L 416.636937 294.065325 
L 422.741651 293.966514 
L 425.357958 293.867704 
L 433.206877 293.768893 
L 434.951081 293.735956 
L 440.183694 293.670082 
L 441.055796 293.604209 
L 447.160511 293.505398 
L 448.904715 293.472461 
L 460.242042 293.373651 
L 462.858349 293.27484 
L 481.172493 293.176029 
L 483.352748 293.110156 
L 494.690076 293.044282 
L 495.562178 292.978408 
L 497.742433 292.912534 
L 499.050586 292.780787 
L 501.666892 292.681976 
L 504.71925 292.550229 
L 508.643709 292.451418 
L 510.823965 292.385544 
L 513.876322 292.286734 
L 517.36473 292.122049 
L 519.544986 292.023239 
L 521.28919 291.990302 
L 525.213649 291.891491 
L 526.957854 291.858554 
L 532.626517 291.759744 
L 534.370722 291.726807 
L 536.550977 291.627996 
L 539.167283 291.529186 
L 542.219641 291.463312 
L 543.091743 291.397438 
L 553.556968 291.298628 
L 559.225632 290.969259 
L 561.405887 290.903385 
L 562.277989 290.804575 
L 563.150091 290.738701 
L 566.6385 290.63989 
L 569.254806 290.54108 
L 573.615316 290.442269 
L 575.795572 290.211711 
L 580.156082 290.1129 
L 581.028184 290.01409 
L 585.388695 289.915279 
L 587.56895 289.849405 
L 592.365512 289.816468 
L 593.237614 289.717658 
L 598.034176 289.618847 
L 598.906278 289.552973 
L 608.499401 289.454163 
L 611.115707 289.355352 
L 617.656473 289.256542 
L 619.400677 289.223605 
L 623.325137 289.157731 
L 624.197239 289.05892 
L 629.865903 288.96011 
L 632.046158 288.894236 
L 639.895077 288.795425 
L 641.20323 288.696615 
L 642.511383 288.597804 
L 643.819536 288.498994 
L 650.360302 288.400183 
L 652.976608 288.301372 
L 664.749987 288.202562 
L 668.674446 288.004941 
L 673.907059 287.90613 
L 674.779161 287.840256 
L 681.319927 287.774382 
L 682.192029 287.708509 
L 686.988591 287.609698 
L 688.732795 287.576761 
L 694.83751 287.477951 
L 697.453816 287.37914 
L 704.866684 287.280329 
L 706.610888 287.247392 
L 710.535348 287.148582 
L 714.023756 286.983898 
L 718.820318 286.885087 
L 721.872675 286.753339 
L 725.797135 286.654529 
L 726.669237 286.588655 
L 735.390258 286.489844 
L 737.570513 286.423971 
L 740.186819 286.32516 
L 742.803126 286.226349 
L 747.163636 286.160476 
L 747.163636 286.160476 
" clip-path="url(#p7d796aba92)" style="fill: none; stroke: #ff7f0e; stroke-width: 1.5; stroke-linecap: square"/>
   </g>
   <g id="patch_3">
    <path d="M 108 320.4 
L 108 43.2 
" style="fill: none; stroke: #a9a9a9; stroke-width: 0.8; stroke-linejoin: miter; stroke-linecap: square"/>
   </g>
   <g id="patch_4">
    <path d="M 777.6 320.4 
L 777.6 43.2 
" style="fill: none"/>
   </g>
   <g id="patch_5">
    <path d="M 108 320.4 
L 777.6 320.4 
" style="fill: none; stroke: #a9a9a9; stroke-width: 0.8; stroke-linejoin: miter; stroke-linecap: square"/>
   </g>
   <g id="patch_6">
    <path d="M 108 43.2 
L 777.6 43.2 
" style="fill: none"/>
   </g>
   <g id="text_19">
    <!-- get_subscribe history -->
    <g style="fill: #a9a9a9" transform="translate(378.6075 37.2) scale(0.12 -0.12)">
     <defs>
      <path id="DejaVuSans-67" d="M 2906 1791 
Q 2906 2416 2648 2759 
Q 2391 3103 1925 3103 
Q 1463 3103 1205 2759 
Q 947 2416 947 1791 
Q 947 1169 1205 825 
Q 1463 481 1925 481 
Q 2391 481 2648 825 
Q 2906 1169 2906 1791 
z
M 3481 434 
Q 3481 -459 3084 -895 
Q 2688 -1331 1869 -1331 
Q 1566 -1331 1297 -1286 
Q 1028 -1241 775 -1147 
L 775 -588 
Q 1028 -725 1275 -790 
Q 1522 -856 1778 -856 
Q 2344 -856 2625 -561 
Q 2906 -266 2906 331 
L 2906 616 
Q 2728 306 2450 153 
Q 2172 0 1784 0 
Q 1141 0 747 490 
Q 353 981 353 1791 
Q 353 2603 747 3093 
Q 1141 3584 1784 3584 
Q 2172 3584 2450 3431 
Q 2728 3278 2906 2969 
L 2906 3500 
L 3481 3500 
L 3481 434 
z
" transform="scale(0.015625)"/>
      <path id="DejaVuSans-65" d="M 3597 1894 
L 3597 1613 
L 953 1613 
Q 991 1019 1311 708 
Q 1631 397 2203 397 
Q 2534 397 2845 478 
Q 3156 559 3463 722 
L 3463 178 
Q 3153 47 2828 -22 
Q 2503 -91 2169 -91 
Q 1331 -91 842 396 
Q 353 884 353 1716 
Q 353 2575 817 3079 
Q 1281 3584 2069 3584 
Q 2775 3584 3186 3129 
Q 3597 2675 3597 1894 
z
M 3022 2063 
Q 3016 2534 2758 2815 
Q 2500 3097 2075 3097 
Q 1594 3097 1305 2825 
Q 1016 2553 972 2059 
L 3022 2063 
z
" transform="scale(0.015625)"/>
      <path id="DejaVuSans-74" d="M 1172 4494 
L 1172 3500 
L 2356 3500 
L 2356 3053 
L 1172 3053 
L 1172 1153 
Q 1172 725 1289 603 
Q 1406 481 1766 481 
L 2356 481 
L 2356 0 
L 1766 0 
Q 1100 0 847 248 
Q 594 497 594 1153 
L 594 3053 
L 172 3053 
L 172 3500 
L 594 3500 
L 594 4494 
L 1172 4494 
z
" transform="scale(0.015625)"/>
      <path id="DejaVuSans-5f" d="M 3263 -1063 
L 3263 -1509 
L -63 -1509 
L -63 -1063 
L 3263 -1063 
z
" transform="scale(0.015625)"/>
      <path id="DejaVuSans-73" d="M 2834 3397 
L 2834 2853 
Q 2591 2978 2328 3040 
Q 2066 3103 1784 3103 
Q 1356 3103 1142 2972 
Q 928 2841 928 2578 
Q 928 2378 1081 2264 
Q 1234 2150 1697 2047 
L 1894 2003 
Q 2506 1872 2764 1633 
Q 3022 1394 3022 966 
Q 3022 478 2636 193 
Q 2250 -91 1575 -91 
Q 1294 -91 989 -36 
Q 684 19 347 128 
L 347 722 
Q 666 556 975 473 
Q 1284 391 1588 391 
Q 1994 391 2212 530 
Q 2431 669 2431 922 
Q 2431 1156 2273 1281 
Q 2116 1406 1581 1522 
L 1381 1569 
Q 847 1681 609 1914 
Q 372 2147 372 2553 
Q 372 3047 722 3315 
Q 1072 3584 1716 3584 
Q 2034 3584 2315 3537 
Q 2597 3491 2834 3397 
z
" transform="scale(0.015625)"/>
      <path id="DejaVuSans-75" d="M 544 1381 
L 544 3500 
L 1119 3500 
L 1119 1403 
Q 1119 906 1312 657 
Q 1506 409 1894 409 
Q 2359 409 2629 706 
Q 2900 1003 2900 1516 
L 2900 3500 
L 3475 3500 
L 3475 0 
L 2900 0 
L 2900 538 
Q 2691 219 2414 64 
Q 2138 -91 1772 -91 
Q 1169 -91 856 284 
Q 544 659 544 1381 
z
M 1991 3584 
L 1991 3584 
z
" transform="scale(0.015625)"/>
      <path id="DejaVuSans-62" d="M 3116 1747 
Q 3116 2381 2855 2742 
Q 2594 3103 2138 3103 
Q 1681 3103 1420 2742 
Q 1159 2381 1159 1747 
Q 1159 1113 1420 752 
Q 1681 391 2138 391 
Q 2594 391 2855 752 
Q 3116 1113 3116 1747 
z
M 1159 2969 
Q 1341 3281 1617 3432 
Q 1894 3584 2278 3584 
Q 2916 3584 3314 3078 
Q 3713 2572 3713 1747 
Q 3713 922 3314 415 
Q 2916 -91 2278 -91 
Q 1894 -91 1617 61 
Q 1341 213 1159 525 
L 1159 0 
L 581 0 
L 581 4863 
L 1159 4863 
L 1159 2969 
z
" transform="scale(0.015625)"/>
      <path id="DejaVuSans-63" d="M 3122 3366 
L 3122 2828 
Q 2878 2963 2633 3030 
Q 2388 3097 2138 3097 
Q 1578 3097 1268 2742 
Q 959 2388 959 1747 
Q 959 1106 1268 751 
Q 1578 397 2138 397 
Q 2388 397 2633 464 
Q 2878 531 3122 666 
L 3122 134 
Q 2881 22 2623 -34 
Q 2366 -91 2075 -91 
Q 1284 -91 818 406 
Q 353 903 353 1747 
Q 353 2603 823 3093 
Q 1294 3584 2113 3584 
Q 2378 3584 2631 3529 
Q 2884 3475 3122 3366 
z
" transform="scale(0.015625)"/>
      <path id="DejaVuSans-72" d="M 2631 2963 
Q 2534 3019 2420 3045 
Q 2306 3072 2169 3072 
Q 1681 3072 1420 2755 
Q 1159 2438 1159 1844 
L 1159 0 
L 581 0 
L 581 3500 
L 1159 3500 
L 1159 2956 
Q 1341 3275 1631 3429 
Q 1922 3584 2338 3584 
Q 2397 3584 2469 3576 
Q 2541 3569 2628 3553 
L 2631 2963 
z
" transform="scale(0.015625)"/>
      <path id="DejaVuSans-69" d="M 603 3500 
L 1178 3500 
L 1178 0 
L 603 0 
L 603 3500 
z
M 603 4863 
L 1178 4863 
L 1178 4134 
L 603 4134 
L 603 4863 
z
" transform="scale(0.015625)"/>
      <path id="DejaVuSans-20" transform="scale(0.015625)"/>
      <path id="DejaVuSans-68" d="M 3513 2113 
L 3513 0 
L 2938 0 
L 2938 2094 
Q 2938 2591 2744 2837 
Q 2550 3084 2163 3084 
Q 1697 3084 1428 2787 
Q 1159 2491 1159 1978 
L 1159 0 
L 581 0 
L 581 4863 
L 1159 4863 
L 1159 2956 
Q 1366 3272 1645 3428 
Q 1925 3584 2291 3584 
Q 2894 3584 3203 3211 
Q 3513 2838 3513 2113 
z
" transform="scale(0.015625)"/>
      <path id="DejaVuSans-6f" d="M 1959 3097 
Q 1497 3097 1228 2736 
Q 959 2375 959 1747 
Q 959 1119 1226 758 
Q 1494 397 1959 397 
Q 2419 397 2687 759 
Q 2956 1122 2956 1747 
Q 2956 2369 2687 2733 
Q 2419 3097 1959 3097 
z
M 1959 3584 
Q 2709 3584 3137 3096 
Q 3566 2609 3566 1747 
Q 3566 888 3137 398 
Q 2709 -91 1959 -91 
Q 1206 -91 779 398 
Q 353 888 353 1747 
Q 353 2609 779 3096 
Q 1206 3584 1959 3584 
z
" transform="scale(0.015625)"/>
      <path id="DejaVuSans-79" d="M 2059 -325 
Q 1816 -950 1584 -1140 
Q 1353 -1331 966 -1331 
L 506 -1331 
L 506 -850 
L 844 -850 
Q 1081 -850 1212 -737 
Q 1344 -625 1503 -206 
L 1606 56 
L 191 3500 
L 800 3500 
L 1894 763 
L 2988 3500 
L 3597 3500 
L 2059 -325 
z
" transform="scale(0.015625)"/>
     </defs>
     <use xlink:href="#DejaVuSans-67"/>
     <use xlink:href="#DejaVuSans-65" transform="translate(63.476562 0)"/>
     <use xlink:href="#DejaVuSans-74" transform="translate(125 0)"/>
     <use xlink:href="#DejaVuSans-5f" transform="translate(164.208984 0)"/>
     <use xlink:href="#DejaVuSans-73" transform="translate(214.208984 0)"/>
     <use xlink:href="#DejaVuSans-75" transform="translate(266.308594 0)"/>
     <use xlink:href="#DejaVuSans-62" transform="translate(329.6875 0)"/>
     <use xlink:href="#DejaVuSans-73" transform="translate(393.164062 0)"/>
     <use xlink:href="#DejaVuSans-63" transform="translate(445.263672 0)"/>
     <use xlink:href="#DejaVuSans-72" transform="translate(500.244141 0)"/>
     <use xlink:href="#DejaVuSans-69" transform="translate(541.357422 0)"/>
     <use xlink:href="#DejaVuSans-62" transform="translate(569.140625 0)"/>
     <use xlink:href="#DejaVuSans-65" transform="translate(632.617188 0)"/>
     <use xlink:href="#DejaVuSans-20" transform="translate(694.140625 0)"/>
     <use xlink:href="#DejaVuSans-68" transform="translate(725.927734 0)"/>
     <use xlink:href="#DejaVuSans-69" transform="translate(789.306641 0)"/>
     <use xlink:href="#DejaVuSans-73" transform="translate(817.089844 0)"/>
     <use xlink:href="#DejaVuSans-74" transform="translate(869.189453 0)"/>
     <use xlink:href="#DejaVuSans-6f" transform="translate(908.398438 0)"/>
     <use xlink:href="#DejaVuSans-72" transform="translate(969.580078 0)"/>
     <use xlink:href="#DejaVuSans-79" transform="translate(1010.693359 0)"/>
    </g>
   </g>
   <g id="legend_1">
    <g id="line2d_39">
     <path d="M 815.08 328.498438 
L 825.08 328.498438 
L 835.08 328.498438 
" style="fill: none; stroke: #1f77b4; stroke-width: 1.5; stroke-linecap: square"/>
    </g>
    <g id="text_20">
     <!-- star -->
     <g style="fill: #a9a9a9" transform="translate(843.08 331.998438) scale(0.1 -0.1)">
      <defs>
       <path id="DejaVuSans-61" d="M 2194 1759 
Q 1497 1759 1228 1600 
Q 959 1441 959 1056 
Q 959 750 1161 570 
Q 1363 391 1709 391 
Q 2188 391 2477 730 
Q 2766 1069 2766 1631 
L 2766 1759 
L 2194 1759 
z
M 3341 1997 
L 3341 0 
L 2766 0 
L 2766 531 
Q 2569 213 2275 61 
Q 1981 -91 1556 -91 
Q 1019 -91 701 211 
Q 384 513 384 1019 
Q 384 1609 779 1909 
Q 1175 2209 1959 2209 
L 2766 2209 
L 2766 2266 
Q 2766 2663 2505 2880 
Q 2244 3097 1772 3097 
Q 1472 3097 1187 3025 
Q 903 2953 641 2809 
L 641 3341 
Q 956 3463 1253 3523 
Q 1550 3584 1831 3584 
Q 2591 3584 2966 3190 
Q 3341 2797 3341 1997 
z
" transform="scale(0.015625)"/>
      </defs>
      <use xlink:href="#DejaVuSans-73"/>
      <use xlink:href="#DejaVuSans-74" transform="translate(52.099609 0)"/>
      <use xlink:href="#DejaVuSans-61" transform="translate(91.308594 0)"/>
      <use xlink:href="#DejaVuSans-72" transform="translate(152.587891 0)"/>
     </g>
    </g>
    <g id="line2d_40">
     <path d="M 815.08 343.176562 
L 825.08 343.176562 
L 835.08 343.176562 
" style="fill: none; stroke: #ff7f0e; stroke-width: 1.5; stroke-linecap: square"/>
    </g>
    <g id="text_21">
     <!-- fork -->
     <g style="fill: #a9a9a9" transform="translate(843.08 346.676562) scale(0.1 -0.1)">
      <defs>
       <path id="DejaVuSans-66" d="M 2375 4863 
L 2375 4384 
L 1825 4384 
Q 1516 4384 1395 4259 
Q 1275 4134 1275 3809 
L 1275 3500 
L 2222 3500 
L 2222 3053 
L 1275 3053 
L 1275 0 
L 697 0 
L 697 3053 
L 147 3053 
L 147 3500 
L 697 3500 
L 697 3744 
Q 697 4328 969 4595 
Q 1241 4863 1831 4863 
L 2375 4863 
z
" transform="scale(0.015625)"/>
       <path id="DejaVuSans-6b" d="M 581 4863 
L 1159 4863 
L 1159 1991 
L 2875 3500 
L 3609 3500 
L 1753 1863 
L 3688 0 
L 2938 0 
L 1159 1709 
L 1159 0 
L 581 0 
L 581 4863 
z
" transform="scale(0.015625)"/>
      </defs>
      <use xlink:href="#DejaVuSans-66"/>
      <use xlink:href="#DejaVuSans-6f" transform="translate(35.205078 0)"/>
      <use xlink:href="#DejaVuSans-72" transform="translate(96.386719 0)"/>
      <use xlink:href="#DejaVuSans-6b" transform="translate(137.5 0)"/>
     </g>
    </g>
   </g>
  </g>
 </g>
 <defs>
  <clipPath id="p7d796aba92">
   <rect x="108" y="43.2" width="669.6" height="277.2"/>
  </clipPath>
 </defs>
</svg>
